<svg class="" width="512" height="512" enable-background="new 0 0 512 512" version="1.1" viewBox="0 0 426.67 426.67" xml:space="preserve" xmlns="http://www.w3.org/2000/svg"><g fill="#fff"><path class="" d="m213.33 0c-117.82 0-213.33 95.512-213.33 213.33 0 117.82 95.512 213.34 213.33 213.34 117.82 0 213.34-95.516 213.34-213.34-0.13281-117.77-95.566-213.2-213.34-213.33zm0 405.33c-106.04 0-192-85.961-192-192 0-106.04 85.961-192 192-192 106.04 0 192 85.961 192 192-0.12109 105.99-86.012 191.88-192 192z" data-original="#000000" xmlns="http://www.w3.org/2000/svg"/><path class="" d="m188.36 130.64c-4.4375-3.8789-11.176-3.4258-15.055 1.0078-3.875 4.4375-3.4219 11.176 1.0117 15.055l76.156 66.633-76.16 66.637c-4.4375 3.8789-4.8867 10.617-1.0117 15.051 3.8789 4.4375 10.617 4.8906 15.055 1.0117l85.332-74.668c2.3164-2.0234 3.6445-4.9531 3.6445-8.0312s-1.3281-6.0039-3.6445-8.0312z" data-original="#000000" xmlns="http://www.w3.org/2000/svg"/></g></svg>
