<?xml version="1.0" encoding="UTF-8"?>
<svg class="" width="512" height="512" enable-background="new 0 0 512 512" version="1.1" viewBox="0 0 511 512" xml:space="preserve" xmlns="http://www.w3.org/2000/svg"><path class="" d="m498.7 222.7c-0.015625-0.011718-0.027344-0.027343-0.039063-0.039062l-208.86-208.85c-8.9023-8.9062-20.738-13.809-33.328-13.809-12.59 0-24.426 4.9023-33.332 13.809l-208.75 208.74c-0.070313 0.070313-0.14453 0.14453-0.21094 0.21484-18.281 18.387-18.25 48.219 0.089844 66.559 8.3789 8.3828 19.441 13.234 31.273 13.746 0.48438 0.046876 0.96875 0.070313 1.457 0.070313h8.3203v153.7c0 30.418 24.75 55.164 55.168 55.164h81.711c8.2852 0 15-6.7188 15-15v-120.5c0-13.879 11.293-25.168 25.172-25.168h48.195c13.879 0 25.168 11.289 25.168 25.168v120.5c0 8.2812 6.7148 15 15 15h81.711c30.422 0 55.168-24.746 55.168-55.164v-153.7h7.7188c12.586 0 24.422-4.9023 33.332-13.812 18.359-18.367 18.367-48.254 0.027344-66.633zm-21.242 45.422c-3.2383 3.2383-7.543 5.0234-12.117 5.0234h-22.719c-8.2852 0-15 6.7148-15 15v168.7c0 13.875-11.289 25.164-25.168 25.164h-66.711v-105.5c0-30.418-24.746-55.168-55.168-55.168h-48.195c-30.422 0-55.172 24.75-55.172 55.168v105.5h-66.711c-13.875 0-25.168-11.289-25.168-25.164v-168.7c0-8.2852-6.7148-15-15-15h-22.328c-0.23438-0.015625-0.46484-0.027344-0.70312-0.03125-4.4688-0.078125-8.6602-1.8516-11.801-4.9961-6.6797-6.6797-6.6797-17.551 0-24.234 0.003906 0 0.003906-0.003906 0.007812-0.007812l0.011719-0.011719 208.85-208.84c3.2344-3.2383 7.5352-5.0195 12.113-5.0195 4.5742 0 8.875 1.7812 12.113 5.0195l208.8 208.8c0.03125 0.03125 0.066406 0.0625 0.097656 0.09375 6.6445 6.6914 6.6328 17.539-0.03125 24.207z" fill="#fff" data-original="#000000" xmlns="http://www.w3.org/2000/svg"/></svg>
