<?xml version="1.0" standalone="no"?>
<!DOCTYPE svg PUBLIC "-//W3C//DTD SVG 20010904//EN"
 "http://www.w3.org/TR/2001/REC-SVG-20010904/DTD/svg10.dtd">
<svg version="1.0" xmlns="http://www.w3.org/2000/svg"
 width="1254.000000pt" height="1280.000000pt" viewBox="0 0 1254.000000 1280.000000"
 preserveAspectRatio="xMidYMid meet">
<metadata>
Created by potrace 1.15, written by Peter Selinger 2001-2017
</metadata>
<g transform="translate(0.000000,1280.000000) scale(0.100000,-0.100000)"
fill="#B13967" stroke="none">
<path d="M5061 12746 c-35 -30 -73 -56 -85 -58 -11 -2 -58 9 -102 25 -66 22
-87 25 -109 17 -17 -7 -33 -7 -45 0 -30 16 -46 12 -58 -15 -9 -20 -19 -25 -46
-25 -26 0 -36 -5 -41 -20 -8 -25 -13 -25 -66 4 -39 21 -61 24 -186 29 l-142 5
-33 -32 c-33 -32 -36 -33 -143 -38 -131 -6 -181 -24 -191 -65 -12 -49 -23 -55
-81 -48 -81 10 -151 -14 -215 -75 -44 -42 -59 -50 -91 -50 -21 0 -54 7 -75 16
-44 18 -163 11 -226 -14 -35 -14 -41 -14 -71 2 -18 10 -54 42 -80 72 -25 30
-54 54 -64 54 -25 0 -49 -39 -57 -92 -10 -67 -122 -249 -181 -294 -39 -29
-160 -79 -232 -94 -55 -12 -119 -38 -143 -58 -22 -18 -23 -53 -4 -90 12 -24
12 -38 1 -90 -7 -35 -20 -71 -29 -81 -22 -24 -20 -89 4 -126 29 -44 27 -113
-5 -156 -13 -19 -37 -52 -52 -75 -44 -64 -164 -171 -224 -199 -30 -13 -71 -25
-92 -25 -66 0 -105 -23 -128 -77 -60 -140 -84 -175 -166 -233 -62 -44 -85 -96
-92 -210 l-6 -94 -33 -10 c-19 -5 -42 -23 -54 -40 -12 -17 -34 -44 -49 -61
-15 -16 -41 -67 -58 -112 -45 -124 -68 -164 -121 -213 -40 -37 -49 -53 -55
-92 -10 -68 16 -140 71 -194 27 -26 44 -51 44 -66 0 -12 3 -39 6 -59 5 -31 2
-41 -25 -68 -24 -24 -30 -38 -26 -54 7 -24 62 -81 86 -89 12 -4 12 -8 0 -31
-10 -18 -12 -43 -7 -91 7 -59 5 -69 -20 -112 -30 -51 -43 -106 -53 -229 l-6
-80 -48 -31 c-74 -48 -97 -74 -97 -106 0 -38 15 -66 56 -104 33 -31 34 -34 34
-105 0 -41 -5 -93 -10 -117 -20 -84 32 -172 99 -172 16 0 43 -10 62 -23 29
-19 35 -31 44 -81 9 -52 13 -59 42 -71 25 -11 39 -29 67 -87 19 -40 36 -82 38
-93 2 -14 12 -21 32 -23 18 -2 47 -23 83 -58 54 -54 54 -55 43 -90 -20 -59 -6
-96 61 -161 33 -32 70 -75 82 -96 14 -25 31 -40 51 -45 23 -6 34 -17 42 -40
16 -49 99 -127 190 -178 96 -54 148 -104 166 -159 12 -36 17 -40 50 -43 27 -2
41 -10 49 -25 15 -29 28 -37 59 -37 14 0 40 -9 58 -20 18 -11 39 -20 48 -20
18 0 118 50 167 83 23 16 57 26 99 31 41 4 73 14 93 28 37 28 99 33 236 20
115 -11 185 -35 231 -79 l27 -25 31 22 c18 13 53 27 78 31 25 5 61 21 80 35
19 15 55 33 80 40 25 8 56 24 68 35 16 15 46 24 110 32 81 11 89 14 94 37 5
21 15 26 70 36 80 16 381 18 433 3 26 -7 37 -15 37 -29 0 -13 14 -27 39 -39
39 -20 90 -72 92 -94 1 -7 2 -36 3 -66 1 -41 6 -57 21 -68 57 -40 98 -63 112
-63 9 0 45 16 80 35 61 33 68 35 162 35 l99 0 61 -66 c89 -98 115 -156 119
-274 3 -79 0 -113 -21 -191 -14 -52 -28 -121 -32 -154 -4 -33 -18 -94 -32
-135 -14 -41 -27 -104 -30 -140 -6 -77 15 -137 82 -235 23 -33 54 -81 69 -107
14 -26 49 -73 77 -105 27 -31 52 -67 54 -80 3 -13 7 -34 10 -48 4 -19 14 -27
35 -32 22 -4 32 -13 36 -32 6 -29 5 -28 57 -104 23 -33 41 -72 44 -97 4 -31
12 -44 29 -52 30 -14 30 -22 -1 -42 -34 -22 -32 -41 15 -110 22 -32 40 -69 40
-82 0 -12 20 -64 45 -115 51 -104 54 -127 24 -175 -33 -55 -29 -107 18 -209
22 -49 51 -119 63 -155 37 -104 17 -157 -81 -215 -42 -25 -81 -100 -87 -168
-2 -29 -12 -60 -20 -70 -10 -11 -20 -56 -28 -122 -10 -88 -16 -111 -42 -150
-17 -26 -33 -66 -36 -89 -32 -276 -38 -420 -23 -480 5 -16 30 -50 56 -75 34
-33 53 -62 66 -101 9 -30 27 -66 40 -80 28 -32 61 -112 70 -170 12 -86 37
-140 105 -236 76 -106 86 -134 71 -191 -17 -61 -13 -123 15 -214 21 -71 25
-96 20 -159 -5 -61 -2 -87 14 -132 11 -32 20 -72 20 -89 0 -57 33 -214 52
-249 56 -102 86 -145 113 -160 42 -23 98 -161 96 -238 -1 -63 26 -135 59 -152
12 -6 33 -35 47 -63 13 -29 35 -67 49 -86 19 -26 24 -47 24 -90 0 -69 -6 -79
-50 -83 -24 -2 -36 -9 -38 -21 -8 -39 10 -89 44 -126 38 -43 41 -55 18 -79
-15 -15 -15 -17 6 -34 12 -10 39 -21 60 -24 28 -5 51 -19 86 -55 27 -27 55
-49 63 -49 8 0 35 13 60 29 44 28 130 51 212 56 20 2 51 13 68 26 21 16 42 22
66 20 66 -5 120 -3 169 4 30 5 74 3 115 -5 67 -12 68 -12 142 21 54 25 87 33
124 32 41 -1 55 4 82 28 26 22 42 28 74 27 32 -1 46 5 72 29 18 16 43 37 56
46 46 30 183 172 212 217 22 36 37 47 76 60 43 14 54 23 111 105 103 148 147
216 192 298 32 60 48 78 68 83 49 10 52 13 52 45 0 18 15 60 34 93 37 68 61
165 75 301 l9 90 52 48 c62 57 124 89 202 106 44 9 69 22 105 55 l48 43 1 94
c1 60 7 110 17 138 22 57 21 83 -3 132 -14 27 -19 50 -15 72 4 22 0 47 -14 77
-11 25 -21 60 -21 78 0 22 -8 39 -25 54 -55 48 -18 133 65 148 82 15 98 26
111 70 10 32 31 59 92 113 43 39 101 99 128 134 55 71 121 114 203 132 44 10
69 25 134 82 83 72 91 84 97 145 2 27 18 50 72 107 89 94 98 115 86 209 -6 43
-6 138 -1 233 4 88 5 177 2 197 -4 26 1 51 16 85 26 60 20 86 -28 117 -98 63
-142 130 -142 218 0 21 -9 57 -19 80 -11 24 -24 77 -30 118 -12 79 -6 120 23
162 32 45 15 107 -43 162 -36 35 -39 62 -11 116 24 48 49 62 109 64 46 1 46 1
49 38 4 49 -11 75 -48 83 -35 8 -37 18 -11 52 11 13 23 45 26 71 13 106 16
113 61 158 24 25 44 51 44 59 0 7 29 44 65 81 36 37 65 75 65 84 0 20 85 120
158 185 30 27 72 76 95 111 82 123 293 322 422 399 82 50 103 71 136 140 22
47 46 75 109 127 95 81 124 122 149 211 12 45 32 85 62 123 68 88 82 114 90
169 4 28 16 71 27 96 11 24 23 55 27 69 12 40 94 190 143 259 58 82 71 119 72
206 0 41 7 80 15 95 8 14 14 43 14 65 0 22 -6 51 -14 65 -8 14 -14 39 -15 56
0 31 -25 64 -49 64 -6 0 -29 -11 -50 -25 -65 -43 -191 -87 -232 -81 -23 4 -56
-1 -92 -14 -31 -11 -76 -20 -100 -20 -37 0 -50 -6 -81 -36 l-38 -37 -81 6
c-72 6 -91 4 -174 -23 -108 -35 -182 -39 -206 -12 -9 10 -24 41 -33 70 -22 66
-43 86 -94 84 -29 -1 -42 3 -49 16 -14 26 5 52 37 52 16 0 33 5 40 12 15 15
16 54 2 63 -5 3 -10 24 -10 46 0 36 -4 41 -33 54 -21 9 -40 28 -55 57 -45 87
-78 132 -102 139 -14 4 -44 13 -68 19 -37 10 -46 17 -61 53 -17 40 -88 109
-138 135 -12 7 -43 30 -68 52 -25 22 -52 40 -60 40 -25 0 -55 51 -55 94 0 59
-46 254 -76 323 -38 87 -38 88 -75 93 -25 4 -35 11 -39 29 -4 16 -15 27 -33
32 -74 20 -99 81 -108 259 -5 118 -10 145 -37 215 -17 44 -51 111 -74 149 -35
56 -50 71 -82 82 -22 7 -48 21 -58 32 -26 26 -41 94 -28 127 6 15 10 39 10 55
0 23 -5 31 -25 36 -27 7 -45 31 -45 62 0 24 -75 169 -105 202 -13 14 -30 39
-38 56 -9 16 -34 49 -56 71 -40 39 -41 43 -41 107 0 64 -13 93 -46 107 -26 11
-129 157 -164 232 -39 83 -49 133 -31 153 5 5 -13 57 -45 127 -30 65 -54 120
-54 122 0 2 12 5 27 7 24 3 -25 19 -198 65 -9 3 -29 -7 -46 -21 -16 -13 -42
-28 -57 -32 -17 -4 -36 -20 -48 -41 -36 -59 -73 -66 -197 -33 -41 11 -84 20
-96 20 -12 0 -40 12 -61 26 -24 17 -71 33 -129 44 -49 10 -98 22 -107 25 -11
4 -21 0 -30 -14 -20 -32 -35 -26 -69 29 -16 27 -38 51 -47 54 -9 2 -69 7 -132
11 -148 8 -150 9 -150 49 0 39 -25 66 -71 75 -22 4 -38 16 -49 36 -25 46 -68
46 -119 0 -27 -24 -61 -42 -106 -55 -79 -23 -90 -31 -105 -75 -9 -27 -7 -43
10 -91 11 -32 20 -69 20 -82 0 -43 -31 -92 -75 -117 -58 -34 -93 -32 -151 10
-101 73 -106 75 -171 75 -59 0 -105 13 -230 65 -38 17 -76 66 -93 120 -26 82
-43 94 -158 102 -72 6 -79 8 -110 41 -29 30 -45 37 -105 48 -40 7 -92 13 -117
14 -76 1 -119 17 -142 56 -21 35 -33 40 -57 25 -10 -7 -24 -2 -44 15 -16 13
-32 24 -37 24 -4 0 -13 13 -20 29 -17 42 4 82 50 97 22 7 38 21 45 38 6 14 21
35 33 46 37 34 30 83 -18 130 -35 34 -40 45 -40 83 0 35 7 53 36 90 34 44 38
67 10 67 -7 0 -23 -11 -36 -25 l-24 -25 -50 49 c-92 88 -110 90 -195 17z
m3409 -6356 c0 -5 -4 -10 -10 -10 -5 0 -10 5 -10 10 0 6 5 10 10 10 6 0 10 -4
10 -10z"/>
<path d="M1662 11348 c-17 -17 -15 -48 5 -55 11 -4 24 3 40 23 12 16 23 32 23
37 0 12 -55 8 -68 -5z"/>
<path d="M1042 11263 c-7 -2 -17 -13 -22 -23 -8 -15 -6 -17 23 -11 18 4 32 13
32 21 0 15 -14 21 -33 13z"/>
<path d="M1602 11236 c-29 -49 -35 -75 -22 -91 19 -23 48 -18 75 11 30 32 32
74 7 97 -27 24 -38 21 -60 -17z"/>
<path d="M1225 11230 c-12 -4 -27 -15 -34 -24 -12 -15 -10 -21 14 -46 16 -17
34 -30 40 -30 18 0 63 53 70 83 7 26 6 27 -31 26 -22 0 -48 -4 -59 -9z"/>
<path d="M1360 11154 c-16 -19 -4 -61 23 -78 40 -25 75 38 41 75 -21 23 -47
24 -64 3z"/>
<path d="M0 9067 c0 -20 21 -37 46 -37 33 0 38 16 12 34 -27 19 -58 21 -58 3z"/>
<path d="M68 8869 c-20 -11 -25 -73 -8 -84 13 -8 66 21 74 41 17 43 -23 69
-66 43z"/>
<path d="M5018 6845 c-47 -26 -48 -80 -2 -91 13 -3 31 -4 39 0 18 6 35 47 35
82 0 28 -29 32 -72 9z"/>
<path d="M3907 5584 c-13 -13 15 -34 45 -34 23 0 29 4 26 18 -3 17 -57 30 -71
16z"/>
<path d="M9797 5094 c-12 -12 -8 -31 13 -55 l19 -24 1 26 c0 28 -22 64 -33 53z"/>
<path d="M10370 4090 c0 -13 7 -20 20 -20 13 0 20 7 20 20 0 13 -7 20 -20 20
-13 0 -20 -7 -20 -20z"/>
<path d="M11256 3970 c-20 -22 -36 -44 -36 -48 0 -5 11 -18 25 -30 14 -12 25
-27 25 -34 0 -19 -98 -108 -119 -108 -28 0 -51 -27 -51 -59 0 -16 -10 -37 -25
-51 -16 -15 -25 -34 -25 -53 0 -26 -2 -28 -29 -22 -36 8 -71 -9 -71 -34 0 -24
-23 -43 -47 -39 -13 2 -19 -4 -21 -22 -5 -37 -27 -56 -97 -84 -35 -14 -78 -34
-97 -46 -18 -11 -43 -20 -54 -20 -12 0 -33 -9 -48 -21 -15 -11 -39 -24 -54
-28 -23 -6 -27 -13 -30 -47 -2 -24 -12 -49 -27 -64 -32 -35 -51 -75 -70 -150
-19 -74 -14 -102 26 -147 16 -18 31 -46 35 -61 3 -15 10 -37 15 -50 18 -45 10
-124 -16 -167 -35 -58 -43 -75 -55 -122 -7 -29 -29 -62 -65 -102 -96 -103
-108 -170 -50 -281 24 -48 37 -89 44 -146 21 -165 28 -184 90 -242 31 -29 70
-56 87 -61 67 -19 184 22 298 104 72 51 78 62 101 194 9 52 25 102 44 134 18
32 36 85 45 136 10 50 27 104 43 130 19 32 28 62 29 100 2 44 7 59 32 85 28
28 47 71 88 196 8 24 26 56 40 71 31 33 43 81 44 175 0 88 20 158 65 223 29
42 35 59 35 104 0 64 6 72 38 51 35 -23 56 -11 48 28 -3 17 -1 56 5 87 11 51
10 60 -10 99 -19 37 -21 57 -20 155 2 106 1 115 -24 158 -15 25 -27 56 -27 68
0 28 -51 81 -78 81 -11 0 -36 -18 -56 -40z"/>
<path d="M12472 2590 c-22 -9 -52 -63 -52 -95 0 -29 38 -15 79 30 45 49 49 60
25 69 -19 7 -23 7 -52 -4z"/>
<path d="M12097 2415 c-26 -25 -10 -47 32 -43 31 3 36 6 36 28 0 20 -6 26 -26
28 -15 2 -34 -4 -42 -13z"/>
</g>
</svg>
